<svg width="1198" height="284" viewBox="0 0 1198 284" fill="none" xmlns="http://www.w3.org/2000/svg">
<g clip-path="url(#clip0_2075_3711)">
<path d="M80.8536 103.997L48.9677 279.449H0L31.8859 103.997H80.8536Z" fill="#161616"/>
<path d="M186.305 134.035L189.949 114.01C191.088 107.638 190.405 102.859 188.127 99.4455C185.622 96.2596 182.661 94.4391 179.017 93.984H176.511C172.412 93.984 168.312 95.8045 164.44 98.5353C160.568 101.266 158.063 105.135 156.924 109.913L137.565 216.641C135.971 225.061 136.654 231.433 139.159 235.756C141.892 240.08 145.081 242.583 149.181 243.039C149.636 243.039 149.864 243.266 150.319 243.266H153.052C156.469 242.811 159.885 241.218 163.074 238.26C166.49 235.301 168.54 231.66 169.223 227.337L174.462 198.663H154.419L161.935 157.702H231.401L209.308 278.994H164.212L167.401 261.699C167.401 261.699 166.262 262.837 165.807 263.519C165.351 264.202 164.668 264.657 164.212 265.34C161.024 269.436 156.924 272.849 151.914 276.035C146.903 279.221 138.248 280.814 125.494 280.814C112.056 280.814 102.263 277.173 96.1132 270.119C89.9638 263.064 86.3197 255.099 84.9532 246.452C84.0421 242.128 83.5866 238.032 83.8144 233.936C83.8144 229.84 84.2699 226.199 84.9532 223.013L104.996 112.417C108.412 93.5289 117.978 78.9648 133.921 68.952C149.636 58.9391 166.035 53.4776 183.116 53.0225H185.849C201.109 53.0225 214.547 57.1186 226.162 65.3109C237.55 73.5032 242.789 85.5641 241.422 101.721L235.5 134.035H186.077H186.305Z" fill="#161616"/>
<path d="M344.14 60.3045C377.848 60.3045 396.98 66.6763 401.991 79.1923C407.001 91.7083 408.368 107.183 406.09 125.388C401.08 152.468 392.653 170.673 380.581 179.776C368.51 188.878 356.211 193.885 343.685 194.795C342.546 194.795 341.635 195.022 340.496 195.022H305.649L290.39 279.449H237.095L276.952 60.0769H344.14V60.3045ZM312.71 156.109C327.514 156.109 337.08 154.288 341.635 150.647C346.19 147.006 349.834 138.587 352.112 125.388C353.706 117.196 353.251 111.279 350.973 107.41C348.695 103.769 342.546 101.949 332.069 101.949H322.503L312.71 156.337V156.109Z" fill="#161616"/>
<path d="M459.157 205.946C459.157 205.946 458.93 207.083 458.702 207.766C458.702 208.449 458.246 208.904 458.019 209.587C457.563 211.18 457.108 212.772 456.652 214.365C456.197 215.958 455.969 217.324 455.741 218.462C453.919 228.019 454.602 234.619 457.563 238.26C460.524 242.128 464.168 244.404 468.723 244.859C469.407 244.859 470.09 245.087 470.773 245.087H472.823C477.606 244.631 481.705 243.039 484.894 240.08C488.083 237.122 489.905 233.253 490.816 228.93C491.499 225.289 491.271 221.192 489.905 216.641C488.538 212.09 486.261 207.539 482.844 202.987C481.478 201.394 479.883 199.801 478.289 197.981C476.695 196.16 474.873 194.567 472.823 192.974C472.367 192.292 471.684 191.837 471.001 191.381C470.318 190.926 469.862 190.244 469.407 189.789C466.901 187.513 464.168 185.465 461.663 183.189C458.93 180.914 456.197 178.638 453.236 176.362C445.72 169.763 439.115 161.798 433.649 152.468C428.183 143.138 426.816 130.622 429.549 115.147C430.232 111.962 431.371 108.321 432.965 103.997C434.788 99.6731 436.837 95.577 439.57 91.2533C445.037 82.3783 452.78 74.4135 462.574 67.1315C472.367 59.8494 483.983 56.2084 498.104 56.2084C517.691 56.2084 534.545 60.7597 547.983 70.0898C561.648 79.4199 566.203 96.0321 561.876 119.926C561.876 120.609 561.42 121.747 561.192 122.657C560.965 123.567 560.737 124.705 560.509 126.071C560.509 126.526 560.509 126.981 560.054 127.664C560.054 128.346 559.826 128.801 559.598 129.256C559.598 129.939 559.598 130.394 559.37 130.849C559.37 131.305 559.37 131.987 559.143 132.442H509.719C510.403 130.849 511.086 129.256 511.314 127.436C511.769 125.615 511.997 124.25 512.225 122.657C513.591 115.603 512.908 109.458 510.63 103.769C508.353 98.3077 504.709 95.577 499.926 95.577H498.332C491.499 96.7148 486.261 98.7629 482.616 101.721C479.2 104.68 476.922 107.865 476.467 111.279C476.239 112.644 476.239 114.237 476.467 115.83C476.695 117.423 477.15 119.016 477.606 120.381C478.289 122.657 479.2 124.705 480.339 126.753C481.478 128.801 482.844 130.622 484.211 132.442C485.349 133.808 486.716 135.173 488.083 136.539C489.449 137.904 490.816 139.042 492.638 140.407C495.826 143.138 499.243 146.096 503.114 148.827C506.759 151.558 510.63 154.516 514.502 157.474C524.068 165.212 532.495 174.314 540.011 185.01C547.527 195.705 549.577 209.359 546.388 226.426L544.794 234.846C541.378 248.5 532.04 260.106 516.552 269.891C501.065 279.449 484.438 284.455 466.218 284.455H456.652C434.787 283.772 420.439 278.083 413.606 268.071C406.773 257.83 403.813 246.68 404.724 234.391C404.724 232.798 404.724 231.205 405.179 229.612C405.179 228.019 405.635 226.426 405.862 224.833C406.09 223.696 406.318 222.33 406.773 220.965C407.229 219.599 407.457 218.462 407.912 217.096C407.912 216.186 408.14 215.503 408.596 214.593C408.823 213.91 409.279 213 409.507 212.09C409.507 211.18 409.962 210.042 410.418 209.131C410.873 208.221 411.101 207.311 411.101 206.401H460.069L459.157 205.946Z" fill="#161616"/>
<path d="M668.466 60.3045C702.174 60.3045 721.305 66.6763 726.316 79.1923C731.327 91.7083 732.693 107.183 730.416 125.388C725.405 152.468 716.978 170.673 704.907 179.776C692.836 188.878 680.537 193.885 668.01 194.795C666.872 194.795 665.96 195.022 664.822 195.022H629.975L614.715 279.449H561.42L601.278 60.0769H668.466V60.3045ZM637.035 156.109C651.84 156.109 661.405 154.288 665.96 150.647C670.516 147.006 674.16 138.587 676.437 125.388C678.032 117.196 677.576 111.279 675.298 107.41C673.021 103.769 666.871 101.949 656.395 101.949H646.829L637.035 156.337V156.109Z" fill="#161616"/>
<path d="M780.294 73.7308C794.187 63.2629 811.725 58.2565 833.134 58.2565H835.411C850.443 58.2565 863.881 62.5802 875.497 70.7725C887.112 78.9648 891.895 93.7565 890.301 114.92L870.942 221.42C867.753 238.715 859.554 253.507 846.344 265.567C832.906 277.628 815.824 283.773 794.643 283.773C769.134 282.635 752.053 276.49 743.626 265.34C735.199 254.189 732.01 239.625 734.288 221.192L753.191 116.74C757.519 98.3078 766.629 83.7437 780.522 73.5033M838.6 114.692C839.511 109.231 838.6 105.135 836.323 102.404C833.817 99.6731 830.629 98.0802 826.985 97.8526H825.39C821.518 97.8526 817.646 99.218 814.002 101.949C810.358 104.68 807.853 109.003 806.942 114.692L786.672 225.744C785.533 232.115 785.988 236.894 788.266 240.308C790.543 243.494 793.277 245.542 796.465 245.997H798.059C798.059 245.997 798.97 245.997 799.426 245.997C799.881 245.997 800.565 245.997 800.792 245.997C804.437 245.087 808.081 243.266 811.497 240.308C814.913 237.349 817.191 233.481 817.874 228.93L838.145 117.423L838.6 115.375V114.692Z" fill="#161616"/>
<path d="M1003.72 60.3044C1019.21 60.3044 1032.19 63.9455 1042.67 70.7724C1052.92 77.8269 1056.34 91.7083 1052.46 112.644L1051.55 118.333C1049.27 130.622 1045.86 139.952 1041.08 146.096C1036.29 152.24 1031.51 156.792 1026.5 159.75C1023.54 161.343 1020.58 162.481 1017.84 163.163C1015.11 163.846 1012.83 164.529 1011.24 164.756C1019.67 167.942 1026.27 172.266 1031.51 177.5C1036.75 182.734 1038.34 190.699 1036.29 201.394L1024.9 264.429C1024.45 267.16 1023.99 269.208 1023.99 271.256C1023.99 273.304 1023.99 274.67 1023.99 276.035C1023.99 277.173 1023.99 278.538 1024.22 279.676H974.798C973.432 278.766 972.749 277.856 972.293 276.263C971.61 275.125 971.154 273.077 970.927 270.574C970.699 268.07 970.927 264.429 971.61 260.333L981.403 205.945C982.314 196.615 980.948 191.154 977.304 189.561C973.66 187.74 969.105 187.058 963.411 187.058C961.816 187.058 959.994 187.058 958.4 187.058C956.806 187.058 954.984 186.83 953.162 186.603L936.308 279.904H885.29L925.147 60.532H1003.5L1003.72 60.3044ZM960.45 147.689H966.599C966.599 147.689 968.193 147.917 969.105 147.917H971.382C980.72 147.917 987.097 146.096 990.741 142.228C994.386 138.359 997.119 131.304 998.941 121.064C1000.76 110.369 998.941 104.224 993.247 102.404C987.553 100.583 979.354 99.673 969.105 99.673L960.45 147.689Z" fill="#161616"/>
<path d="M1198 60.3044L1190.03 103.997H1156.78L1124.89 279.449H1073.19L1105.08 103.997H1071.82L1079.79 60.3044H1198Z" fill="#161616"/>
<path d="M77.8928 0C58.7612 0 41.4517 10.6955 39.1742 23.6667C36.8966 36.6378 48.0567 86.4744 62.1776 86.4744C75.1597 86.4744 105.679 36.8654 108.184 23.6667C110.69 10.4679 97.0244 0 78.1206 0M68.5548 52.7949C57.3947 52.7949 50.1065 44.1474 51.9285 33.4519C53.7506 22.7564 64.4552 14.109 75.6152 14.109C86.7753 14.109 94.0635 22.7564 92.0137 33.4519C89.9639 44.1474 79.4871 52.7949 68.327 52.7949" fill="#E84128"/>
</g>
<defs>
<clipPath id="clip0_2075_3711">
<rect width="1198" height="284" fill="white"/>
</clipPath>
</defs>
</svg>
