<svg width="122" height="20" viewBox="0 0 122 20" fill="none" xmlns="http://www.w3.org/2000/svg">
<path fill-rule="evenodd" clip-rule="evenodd" d="M6.09857 8.62026H16.8344C17.5764 8.62026 18.22 8.02049 18.2889 7.28487C18.3607 6.51658 17.7787 5.89942 17.0037 5.89942H4.15251C4.69646 4.32386 5.24041 2.74944 5.78437 1.17483C5.9241 0.771288 6.31623 0.483154 6.74828 0.483154H18.063C21.9138 0.483154 24.8073 3.63715 24.4511 7.45435C24.1094 11.1103 20.9081 14.0149 17.2214 14.0161C14.8659 14.018 12.5102 14.018 10.1538 14.0191C9.49586 14.0191 8.93042 14.4297 8.73022 15.0112C8.30201 16.2506 7.87418 17.4909 7.4452 18.7292C7.30566 19.1329 6.91661 19.4209 6.48455 19.4209H1.2746C0.351954 19.4209 -0.217717 18.5485 0.0790189 17.6902C0.806655 15.5832 1.53544 13.4767 2.26212 11.3698C2.81931 9.75636 4.37017 8.62026 6.09857 8.62026Z" fill="black"/>
<path fill-rule="evenodd" clip-rule="evenodd" d="M105.741 19.4209C105.34 17.9271 104.938 16.4324 104.536 14.9376C104.384 14.3703 103.905 14.0168 103.322 14.0168C102.765 14.018 102.208 14.018 101.652 14.018C100.995 14.0189 100.429 14.4288 100.228 15.011C99.8004 16.2505 99.3722 17.4899 98.9432 18.7283C98.8047 19.1327 98.4146 19.4209 97.9826 19.4209H92.7728C91.8502 19.4209 91.2803 18.5483 91.577 17.689C92.3047 15.5832 93.0335 13.4765 93.7601 11.3696C94.3185 9.75636 95.8684 8.62007 97.5966 8.62007H108.333C109.075 8.62007 109.719 8.01934 109.787 7.28468C109.859 6.51639 109.277 5.89923 108.503 5.89923H95.6507C96.1947 4.32271 96.7388 2.74829 97.2837 1.17483C97.4221 0.771288 97.8143 0.483154 98.2475 0.483154H109.56C113.412 0.483154 116.305 3.63715 115.948 7.45435C115.708 10.0311 114.045 12.2361 111.792 13.312C112.343 15.34 112.89 17.3682 113.439 19.4209H105.741Z" fill="black"/>
<path fill-rule="evenodd" clip-rule="evenodd" d="M58.476 5.89828C58.9603 4.49448 59.4459 3.09164 59.9313 1.68766C60.1376 1.09095 59.7344 0.483154 59.0927 0.483154H53.379C52.9469 0.483154 52.5548 0.770142 52.4152 1.17368C51.8713 2.74829 51.3273 4.32271 50.7822 5.89828H58.476Z" fill="black"/>
<path fill-rule="evenodd" clip-rule="evenodd" d="M63.2275 19.4165H47.9059C46.9842 19.4165 46.4146 18.5439 46.7123 17.6847C47.7562 14.6623 48.8009 11.639 49.8447 8.61572H57.5374C57.1802 9.65075 56.822 10.6879 56.4639 11.7229C56.1683 12.5812 56.7502 13.4536 57.6708 13.4536H64.1986C65.1212 13.4536 65.7095 14.3241 65.4128 15.1815C65.0053 16.3627 64.5968 17.5437 64.1893 18.7239C64.0487 19.1284 63.6596 19.4165 63.2275 19.4165Z" fill="black"/>
<path fill-rule="evenodd" clip-rule="evenodd" d="M80.9213 0.845806C79.5099 2.53066 78.0998 4.21437 76.6875 5.89828H88.0905C87.9489 4.35749 87.8061 2.81669 87.6646 1.27495C87.6203 0.810075 87.2375 0.483154 86.7696 0.483154H81.7003C81.3975 0.483154 81.1132 0.615948 80.9213 0.845806Z" fill="black"/>
<path fill-rule="evenodd" clip-rule="evenodd" d="M82.4603 19.4165H88.2244C88.8042 19.4165 89.2896 18.8913 89.2365 18.312C88.9367 15.0802 88.638 11.8475 88.3403 8.61572H74.4074C72.0057 11.4837 69.603 14.3518 67.1992 17.2198C66.4684 18.0924 66.9807 19.4165 68.1515 19.4165H72.7304C73.0321 19.4165 73.3195 19.2685 73.5103 19.0384C74.7717 17.5335 76.0321 16.0285 77.2935 14.5244C77.5705 14.1944 77.9822 14.0125 78.4143 14.0125H79.9611C80.6333 14.0125 81.1845 14.4755 81.2471 15.1467C81.3538 16.3002 81.4605 17.4539 81.5663 18.6062C81.6093 19.0732 81.9931 19.4165 82.4603 19.4165Z" fill="black"/>
<path fill-rule="evenodd" clip-rule="evenodd" d="M46.2037 8.61572C46.6717 14.5653 41.7636 19.8109 35.818 19.9947C29.5343 20.1879 24.9865 14.7307 26.2286 8.61572H46.2037Z" fill="#E51D34"/>
<path fill-rule="evenodd" clip-rule="evenodd" d="M45.5819 5.89684C44.1151 2.14499 40.4798 -0.100663 36.4964 0.00347032C32.5634 0.104738 28.9753 2.44229 27.1914 5.89684H45.5819Z" fill="#E51D34"/>
<path fill-rule="evenodd" clip-rule="evenodd" d="M118.267 17.2062V16.2911H119.009C119.325 16.2911 119.656 16.3544 119.656 16.7493C119.656 17.1446 119.325 17.2062 119.009 17.2062H118.267ZM120.002 16.7119C119.976 16.166 119.534 16.0686 119.083 16.0686H117.951V18.645H118.269V17.4577H118.851C119.099 17.8538 119.345 18.2497 119.591 18.645H119.971C119.71 18.248 119.449 17.8509 119.188 17.4537C119.681 17.4332 120.027 17.2611 120.002 16.7119Z" fill="black"/>
<path fill-rule="evenodd" clip-rule="evenodd" d="M118.807 19.3565C117.7 19.3565 116.86 18.4283 116.86 17.3533C116.86 16.2764 117.7 15.3471 118.807 15.3471C119.911 15.3471 120.752 16.2764 120.752 17.3533C120.752 18.4283 119.911 19.3565 118.807 19.3565ZM118.809 15.04C117.527 15.04 116.488 16.073 116.488 17.3499C116.488 18.6243 117.527 19.6578 118.809 19.6578C120.09 19.6578 121.128 18.6243 121.128 17.3499C121.128 16.073 120.09 15.04 118.809 15.04Z" fill="black"/>
</svg>