<svg width="21" height="27" viewBox="0 0 21 27" fill="none" xmlns="http://www.w3.org/2000/svg">
  <path d="M15.2187 9.45896C15.2187 7.98075 17.2147 7.58895 17.7442 8.97205C19.025 12.3177 19.9583 15.3105 19.9583 16.9287C19.9583 22.0856 15.7143 26.2661 10.4792 26.2661C5.24397 26.2661 1 22.0856 1 16.9287C1 15.1903 2.07725 11.865 3.50546 8.22022C5.35554 3.49886 6.28058 1.13817 7.42251 1.01101C7.78784 0.97034 8.18653 1.04349 8.51243 1.21104C9.53125 1.73472 9.53125 4.30946 9.53125 9.45896C9.53125 11.006 10.8045 12.2602 12.375 12.2602C13.9455 12.2602 15.2187 11.006 15.2187 9.45896Z" stroke="#0f172a" stroke-width="1.216"/>
  <path d="M8.58333 26.2658L8.08511 25.0388C7.22136 22.9118 7.58555 20.4913 9.03833 18.7025C9.77695 17.793 11.1814 17.793 11.92 18.7025C13.3728 20.4913 13.737 22.9118 12.8732 25.0388L12.375 26.2658" stroke="#0f172a" stroke-width="1.216"/>
</svg>