<svg width="34" height="34" viewBox="0 0 34 34" fill="none" xmlns="http://www.w3.org/2000/svg">
<g clip-path="url(#clip0_3195_23871)">
<rect width="34" height="34" fill="#FFCE52"/>
<rect width="34" height="34" fill="url(#paint0_linear_3195_23871)"/>
<rect x="34" y="34" width="34" height="34" transform="rotate(180 34 34)" fill="url(#paint1_linear_3195_23871)"/>
<path fill-rule="evenodd" clip-rule="evenodd" d="M15.3588 12.3492C15.7147 11.934 16.3381 11.8817 16.7582 12.2318L19.4801 14.5H22.6181C23.1703 14.5 23.6181 14.9477 23.6181 15.5C23.6181 16.0523 23.1703 16.5 22.6181 16.5H19.1181C18.8841 16.5 18.6576 16.418 18.4779 16.2682L16.2355 14.3996L14.7784 16.0995L18.3791 17.5746C18.8794 17.7796 19.1262 18.345 18.9364 18.8511L17.4364 22.8511C17.2425 23.3682 16.6661 23.6302 16.1489 23.4363C15.6318 23.2424 15.3698 22.666 15.5637 22.1489L16.723 19.0575L12.739 17.4254C12.4418 17.3036 12.2212 17.0466 12.1459 16.7345C12.0706 16.4223 12.1498 16.093 12.3588 15.8492L15.3588 12.3492Z" fill="#1D1D1D"/>
<path d="M21 9.75C21 10.8546 20.1046 11.75 19 11.75C17.8954 11.75 17 10.8546 17 9.75C17 8.64543 17.8954 7.75 19 7.75C20.1046 7.75 21 8.64543 21 9.75Z" fill="#1D1D1D"/>
<path fill-rule="evenodd" clip-rule="evenodd" d="M10.25 20.75C8.73122 20.75 7.5 21.9812 7.5 23.5C7.5 25.0188 8.73122 26.25 10.25 26.25C11.7688 26.25 13 25.0188 13 23.5C13 21.9812 11.7688 20.75 10.25 20.75ZM6 23.5C6 21.1528 7.90279 19.25 10.25 19.25C12.5972 19.25 14.5 21.1528 14.5 23.5C14.5 25.8472 12.5972 27.75 10.25 27.75C7.90279 27.75 6 25.8472 6 23.5Z" fill="#1D1D1D"/>
<path fill-rule="evenodd" clip-rule="evenodd" d="M23.5 20.75C21.9812 20.75 20.75 21.9812 20.75 23.5C20.75 25.0188 21.9812 26.25 23.5 26.25C25.0188 26.25 26.25 25.0188 26.25 23.5C26.25 21.9812 25.0188 20.75 23.5 20.75ZM19.25 23.5C19.25 21.1528 21.1528 19.25 23.5 19.25C25.8472 19.25 27.75 21.1528 27.75 23.5C27.75 25.8472 25.8472 27.75 23.5 27.75C21.1528 27.75 19.25 25.8472 19.25 23.5Z" fill="#1D1D1D"/>
</g>
<defs>
<linearGradient id="paint0_linear_3195_23871" x1="0" y1="0" x2="34" y2="34" gradientUnits="userSpaceOnUse">
<stop offset="0.199" stop-color="white" stop-opacity="0.5"/>
<stop offset="1" stop-color="white" stop-opacity="0"/>
</linearGradient>
<linearGradient id="paint1_linear_3195_23871" x1="34" y1="34" x2="68" y2="68" gradientUnits="userSpaceOnUse">
<stop stop-opacity="0.25"/>
<stop offset="0.35" stop-opacity="0"/>
</linearGradient>
<clipPath id="clip0_3195_23871">
<rect width="34" height="34" rx="4" fill="white"/>
</clipPath>
</defs>
</svg>
