<svg width="10" height="14" viewBox="0 0 10 14" fill="none" xmlns="http://www.w3.org/2000/svg">
<path d="M3.00004 13.6667L2.10004 10.6333C1.56671 10.2111 1.13893 9.68333 0.816707 9.05C0.494485 8.41667 0.333374 7.73333 0.333374 7C0.333374 6.26667 0.494485 5.58333 0.816707 4.95C1.13893 4.31667 1.56671 3.78889 2.10004 3.36667L3.00004 0.333333H7.00004L7.90004 3.36667C8.43337 3.78889 8.86115 4.31667 9.18337 4.95C9.5056 5.58333 9.66671 6.26667 9.66671 7C9.66671 7.73333 9.5056 8.41667 9.18337 9.05C8.86115 9.68333 8.43337 10.2111 7.90004 10.6333L7.00004 13.6667H3.00004ZM5.00004 10.3333C5.92226 10.3333 6.70848 10.0082 7.35871 9.358C8.00893 8.70778 8.33382 7.92178 8.33337 7C8.33293 6.07822 8.00782 5.29222 7.35804 4.642C6.70826 3.99178 5.92226 3.66667 5.00004 3.66667C4.07782 3.66667 3.29182 3.99178 2.64204 4.642C1.99226 5.29222 1.66715 6.07822 1.66671 7C1.66626 7.92178 1.99137 8.708 2.64204 9.35867C3.29271 10.0093 4.07871 10.3342 5.00004 10.3333Z" fill="#0f172a"/>
</svg>
