<svg width="24" height="24" viewBox="0 0 24 24" fill="none" xmlns="http://www.w3.org/2000/svg">
<path fill-rule="evenodd" clip-rule="evenodd" d="M2.39999 19.5V4.5H3.59999V19.5H2.39999Z" fill="#0f172a"/>
<path fill-rule="evenodd" clip-rule="evenodd" d="M5.39999 19.5L5.39999 12L6.59999 12L6.59999 19.5L5.39999 19.5Z" fill="#0f172a"/>
<path fill-rule="evenodd" clip-rule="evenodd" d="M8.39999 19.5L8.39999 12L9.59999 12L9.59999 19.5L8.39999 19.5Z" fill="#0f172a"/>
<path fill-rule="evenodd" clip-rule="evenodd" d="M14.4 19.5L14.4 12L15.6 12L15.6 19.5L14.4 19.5Z" fill="#0f172a"/>
<path fill-rule="evenodd" clip-rule="evenodd" d="M17.4 19.5L17.4 12L18.6 12L18.6 19.5L17.4 19.5Z" fill="#0f172a"/>
<path fill-rule="evenodd" clip-rule="evenodd" d="M11.4 19.5V4.5H12.6V19.5H11.4Z" fill="#0f172a"/>
<path fill-rule="evenodd" clip-rule="evenodd" d="M20.4 19.5L20.4 4.5L21.6 4.5L21.6 19.5L20.4 19.5Z" fill="#0f172a"/>
</svg>
