<svg width="24" height="24" viewBox="0 0 24 24" fill="none" xmlns="http://www.w3.org/2000/svg">
  <path fill-rule="evenodd" clip-rule="evenodd" d="M12 3.5C7.30558 3.5 3.5 7.30558 3.5 12C3.5 16.6944 7.30558 20.5 12 20.5C16.6944 20.5 20.5 16.6944 20.5 12C20.5 7.30558 16.6944 3.5 12 3.5ZM2.5 12C2.5 6.75329 6.75329 2.5 12 2.5C17.2467 2.5 21.5 6.75329 21.5 12C21.5 17.2467 17.2467 21.5 12 21.5C6.75329 21.5 2.5 17.2467 2.5 12Z" fill="#0f172a"/>
  <path fill-rule="evenodd" clip-rule="evenodd" d="M11 8V14C11 14.1801 11.0969 14.3463 11.2537 14.4351C11.4104 14.5239 11.6028 14.5214 11.7573 14.4287L16.7573 11.4287L16.2428 10.5713L12 13.1169V8H11Z" fill="#0f172a"/>
</svg>