<svg width="24" height="24" viewBox="0 0 24 24" fill="none" xmlns="http://www.w3.org/2000/svg">
<path d="M11.0257 18.4741L11.025 18.4734C8.69743 16.4286 6.80646 14.7642 5.49153 13.2056C4.18156 11.653 3.5 10.2696 3.5 8.79564C3.5 6.3929 5.43849 4.5 7.95 4.5C9.37064 4.5 10.7381 5.14325 11.6257 6.14518L12 6.56765L12.3743 6.14518C13.2619 5.14325 14.6294 4.5 16.05 4.5C18.5615 4.5 20.5 6.3929 20.5 8.79564C20.5 10.2696 19.8184 11.653 18.5085 13.2056C17.1935 14.7642 15.3026 16.4286 12.975 18.4734L12.9743 18.4741L12 19.3333L11.0257 18.4741Z" stroke="#0f172a"/>
</svg>
