<svg xmlns="http://www.w3.org/2000/svg" width="34" height="34" viewBox="5.89 5.90 21.31 21.95" fill="none">
  <path fill-rule="evenodd" clip-rule="evenodd" d="M13.2408 10.5992C13.5967 10.184 14.2201 10.1317 14.6402 10.4818L17.3621 12.75H20.5C21.0523 12.75 21.5 13.1977 21.5 13.75C21.5 14.3023 21.0523 14.75 20.5 14.75H17C16.7661 14.75 16.5395 14.668 16.3598 14.5182L14.1175 12.6496L12.6604 14.3495L16.2611 15.8247C16.7613 16.0296 17.0082 16.595 16.8183 17.1011L15.3183 21.1011C15.1244 21.6183 14.548 21.8803 14.0309 21.6863C13.5138 21.4924 13.2518 20.916 13.4457 20.3989L14.605 17.3075L10.6209 15.6754C10.3238 15.5537 10.1032 15.2966 10.0279 14.9845C9.9526 14.6723 10.0318 14.343 10.2408 14.0992L13.2408 10.5992Z" fill="#0f172a" />
  <path fill-rule="evenodd" clip-rule="evenodd" d="M21.5156 19.9275C21.8318 19.6599 22.3051 19.6993 22.5726 20.0155L26.6799 24.8696C27.6423 26.007 26.8339 27.75 25.344 27.75H6.99104C6.17375 27.75 5.7016 26.8228 6.1823 26.1618L9.1314 22.1068C9.80583 21.1795 11.175 21.1405 11.9011 22.028L15.3555 26.25H25.344C25.5568 26.25 25.6723 26.001 25.5348 25.8385L21.4276 20.9845C21.16 20.6683 21.1994 20.195 21.5156 19.9275ZM13.4174 26.25L10.7402 22.9778C10.6364 22.851 10.4408 22.8566 10.3445 22.9891L7.97293 26.25H13.4174Z" fill="#0f172a" />
  <path d="M18.8821 8C18.8821 9.10457 17.9866 10 16.8821 10C15.7775 10 14.8821 9.10457 14.8821 8C14.8821 6.89543 15.7775 6 16.8821 6C17.9866 6 18.8821 6.89543 18.8821 8Z" fill="#0f172a" />
  <path fill-rule="evenodd" clip-rule="evenodd" d="M22 17.75C20.4812 17.75 19.25 18.9812 19.25 20.5C19.25 22.0188 20.4812 23.25 22 23.25C23.5188 23.25 24.75 22.0188 24.75 20.5C24.75 18.9812 23.5188 17.75 22 17.75ZM17.75 20.5C17.75 18.1528 19.6528 16.25 22 16.25C24.3472 16.25 26.25 18.1528 26.25 20.5C26.25 22.8472 24.3472 24.75 22 24.75C19.6528 24.75 17.75 22.8472 17.75 20.5Z" fill="#0f172a" />
</svg>