<svg width="34" height="34" viewBox="0 0 34 34" fill="none" xmlns="http://www.w3.org/2000/svg">
<g clip-path="url(#clip0_3195_23868)">
<rect width="34" height="34" fill="#E3E3E3"/>
<rect width="34" height="34" fill="url(#paint0_linear_3195_23868)"/>
<rect x="34" y="34" width="34" height="34" transform="rotate(180 34 34)" fill="url(#paint1_linear_3195_23868)"/>
<path fill-rule="evenodd" clip-rule="evenodd" d="M15.8089 11.0192C15.3342 10.9694 14.8542 11.0168 14.3995 11.1584C13.9448 11.3 13.5259 11.5324 13.1688 11.84C12.8118 12.1477 12.5244 12.5238 12.3238 12.9442C12.1232 13.3646 12.0136 13.8205 12.0012 14.2835C11.9888 14.7465 12.0739 15.2074 12.2516 15.6373C12.4293 16.0672 12.696 16.4574 13.0359 16.7829L13.0422 16.789L13.0422 16.789L19.0074 22.6035L24.9726 16.789C24.9919 16.7702 25.0118 16.7523 25.0322 16.7354C25.3425 16.4211 25.587 16.0511 25.7527 15.6462C25.9284 15.2171 26.012 14.7575 25.9986 14.296C25.9853 13.8344 25.8753 13.3801 25.675 12.9612C25.4747 12.5423 25.1881 12.1674 24.8323 11.8605C24.4765 11.5537 24.0592 11.3216 23.6062 11.1797C23.1532 11.0378 22.6748 10.9893 22.2014 11.0376C21.728 11.0859 21.2705 11.2298 20.8575 11.4596C20.4446 11.6894 20.0855 12 19.802 12.3711C19.6122 12.6195 19.3172 12.7648 19.0046 12.764C18.692 12.7631 18.3978 12.6161 18.2094 12.3666C17.9272 11.9929 17.5685 11.6796 17.1553 11.4473C16.7421 11.215 16.2837 11.069 15.8089 11.0192ZM26.3035 18.2847L19.7054 24.7161C19.3171 25.0946 18.6978 25.0946 18.3094 24.7161L11.6492 18.2242C11.1116 17.7084 10.6871 17.088 10.4033 16.4012C10.1188 15.713 9.98199 14.9737 10.0019 14.23C10.0218 13.4863 10.198 12.7553 10.5187 12.083C10.8395 11.4108 11.2976 10.8124 11.8633 10.3249C12.4291 9.83745 13.0902 9.47138 13.8049 9.24885C14.5196 9.02632 15.2729 8.95193 16.0177 9.03013C16.7626 9.10833 17.4836 9.33751 18.1354 9.70391C18.4478 9.87953 18.7411 10.0849 19.0114 10.3167C19.2813 10.0879 19.5738 9.88524 19.8849 9.71206C20.5362 9.34957 21.2558 9.1237 21.9985 9.04794C22.7412 8.97219 23.492 9.04809 24.204 9.27114C24.9161 9.49419 25.5748 9.85981 26.1385 10.346C26.7023 10.8322 27.1591 11.4286 27.4794 12.0985C27.7997 12.7684 27.9764 13.4968 27.9978 14.2382C28.0192 14.9795 27.8849 15.7168 27.6037 16.4039C27.3225 17.0908 26.9007 17.7121 26.3656 18.2294C26.3455 18.2488 26.3248 18.2672 26.3035 18.2847Z" fill="#1D1D1D"/>
<path fill-rule="evenodd" clip-rule="evenodd" d="M7 17H10V19H7V17Z" fill="#1D1D1D"/>
<path fill-rule="evenodd" clip-rule="evenodd" d="M9.5 20L12.5 20L12.5 22L9.5 22L9.5 20Z" fill="#1D1D1D"/>
<path fill-rule="evenodd" clip-rule="evenodd" d="M12.5 23L15.5 23L15.5 25L12.5 25L12.5 23Z" fill="#1D1D1D"/>
</g>
<defs>
<linearGradient id="paint0_linear_3195_23868" x1="0" y1="0" x2="34" y2="34" gradientUnits="userSpaceOnUse">
<stop offset="0.199" stop-color="white" stop-opacity="0.5"/>
<stop offset="1" stop-color="white" stop-opacity="0"/>
</linearGradient>
<linearGradient id="paint1_linear_3195_23868" x1="34" y1="34" x2="68" y2="68" gradientUnits="userSpaceOnUse">
<stop stop-opacity="0.25"/>
<stop offset="0.35" stop-opacity="0"/>
</linearGradient>
<clipPath id="clip0_3195_23868">
<rect width="34" height="34" rx="4" fill="white"/>
</clipPath>
</defs>
</svg>
