<svg width="24" height="24" viewBox="0 0 24 24" fill="none" xmlns="http://www.w3.org/2000/svg">
<path fill-rule="evenodd" clip-rule="evenodd" d="M12 3.5C7.30558 3.5 3.5 7.30558 3.5 12C3.5 16.6944 7.30558 20.5 12 20.5C12.9152 20.5 13.7956 20.3555 14.6203 20.0886L14.9283 21.04C14.0053 21.3388 13.021 21.5 12 21.5C6.75329 21.5 2.5 17.2467 2.5 12C2.5 6.75329 6.75329 2.5 12 2.5C17.2467 2.5 21.5 6.75329 21.5 12C21.5 12.9148 21.3705 13.8003 21.1286 14.6386L20.1678 14.3614C20.384 13.6123 20.5 12.8201 20.5 12C20.5 7.30558 16.6944 3.5 12 3.5Z" fill="#0f172a"/>
<path fill-rule="evenodd" clip-rule="evenodd" d="M11 8V14C11 14.1801 11.0969 14.3463 11.2537 14.4351C11.4104 14.5239 11.6028 14.5214 11.7573 14.4287L16.7573 11.4287L16.2428 10.5713L12 13.1169V8H11Z" fill="#0f172a"/>
<path d="M20.2 18.3501C20.2 19.1785 19.5284 19.8501 18.7 19.8501C17.8716 19.8501 17.2 19.1785 17.2 18.3501C17.2 17.5217 17.8716 16.8501 18.7 16.8501C19.5284 16.8501 20.2 17.5217 20.2 18.3501Z" fill="#0f172a"/>
</svg>
