<svg width="24" height="24" viewBox="0 0 24 24" fill="none" xmlns="http://www.w3.org/2000/svg">
<path fill-rule="evenodd" clip-rule="evenodd" d="M11.9995 4.5C11.925 4.5 11.8425 4.51942 11.7461 4.5746C11.6857 4.60918 11.6358 4.66068 11.597 4.75433L11.5962 4.75616L9.72735 9.20668L4.90914 9.63033C4.76621 9.65208 4.69839 9.69266 4.66717 9.72009C4.61117 9.76929 4.563 9.83651 4.52725 9.9358C4.49762 10.0181 4.49186 10.0987 4.51112 10.1885C4.52455 10.2511 4.55892 10.321 4.64564 10.4003L8.303 13.5709L7.20732 18.2933C7.20728 18.2935 7.20737 18.2932 7.20732 18.2933C7.18191 18.4046 7.19597 18.4714 7.21825 18.5182C7.26343 18.6132 7.32373 18.6879 7.40136 18.7485C7.46058 18.7947 7.5304 18.8239 7.62599 18.8319C7.69433 18.8376 7.76536 18.8238 7.85254 18.7681L7.86289 18.7615L11.9995 16.2612L16.1477 18.7687C16.2344 18.8243 16.3043 18.8379 16.3714 18.8321C16.4683 18.8237 16.5391 18.794 16.5988 18.7476C16.6754 18.6882 16.7353 18.6143 16.7805 18.5189C16.8033 18.4707 16.8172 18.4041 16.7919 18.2938C16.7918 18.2938 16.7919 18.2938 16.7919 18.2938L15.6961 13.5709L19.3543 10.3995C19.4415 10.3207 19.4756 10.2513 19.4889 10.1894C19.508 10.1004 19.5023 10.0198 19.4722 9.93676C19.4356 9.83572 19.387 9.76847 19.332 9.7202C19.3016 9.69346 19.2337 9.65265 19.0893 9.63028L14.2717 9.20668L12.4029 4.75616L12.4021 4.75433C12.3632 4.66068 12.3134 4.60918 12.253 4.5746C12.1566 4.51942 12.0741 4.5 11.9995 4.5ZM11.2494 3.70668C11.4806 3.57434 11.7327 3.5 11.9995 3.5C12.2663 3.5 12.5184 3.57434 12.7497 3.70668C13.0166 3.85942 13.2083 4.08879 13.3252 4.36966C13.3253 4.37005 13.3255 4.37044 13.3257 4.37083L14.9602 8.26335L19.2054 8.63663L19.2189 8.63857C19.5021 8.67916 19.7739 8.77745 19.9918 8.96874C20.186 9.13925 20.3244 9.3533 20.4123 9.59605C20.5068 9.85677 20.5248 10.1281 20.4666 10.3992C20.4028 10.6967 20.2425 10.9466 20.0188 11.1468L20.0128 11.1522L16.8064 13.9318L17.7662 18.0686C17.8342 18.3646 17.8172 18.6664 17.6843 18.947C17.5737 19.1804 17.4156 19.3796 17.2119 19.5377C16.9913 19.7089 16.735 19.8042 16.4581 19.8283C16.1539 19.8548 15.8679 19.7759 15.6135 19.6143L11.9995 17.4297L8.38505 19.6146C8.13102 19.7753 7.84584 19.8538 7.54266 19.8285C7.26447 19.8052 7.00723 19.7094 6.78612 19.5368C6.58343 19.3787 6.42569 19.1802 6.31513 18.9476C6.1817 18.667 6.16476 18.3658 6.23261 18.0699L6.23291 18.0686L7.1927 13.9318L3.97861 11.1455C3.75626 10.9447 3.59702 10.6949 3.53337 10.3982C3.47539 10.128 3.49268 9.85725 3.58639 9.59701C3.67399 9.35375 3.8127 9.13969 4.00713 8.96886C4.22551 8.77699 4.49748 8.67839 4.78134 8.6384L4.79428 8.63657L9.03888 8.26335L10.6734 4.37083C10.6735 4.37052 10.6733 4.37113 10.6734 4.37083C10.7903 4.08984 10.9824 3.85947 11.2494 3.70668Z" fill="#0f172a"/>
</svg>
