<svg width="34" height="34" viewBox="0 0 34 34" fill="none" xmlns="http://www.w3.org/2000/svg">
<g clip-path="url(#clip0_3195_23873)">
<rect width="34" height="34" fill="#3ED769"/>
<rect width="34" height="34" fill="url(#paint0_linear_3195_23873)"/>
<rect x="34" y="34" width="34" height="34" transform="rotate(180 34 34)" fill="url(#paint1_linear_3195_23873)"/>
<path fill-rule="evenodd" clip-rule="evenodd" d="M15.0324 18.2476C15.1718 17.7132 15.718 17.393 16.2524 17.5324L22.0024 19.0324C22.3246 19.1164 22.5839 19.3554 22.6939 19.6696L24.4439 24.6696C24.6263 25.1909 24.3516 25.7614 23.8303 25.9439C23.3091 26.1263 22.7386 25.8516 22.5561 25.3303L20.9821 20.8332L15.7476 19.4676C15.2132 19.3282 14.893 18.782 15.0324 18.2476Z" fill="#1D1D1D"/>
<path fill-rule="evenodd" clip-rule="evenodd" d="M19.497 12C19.8324 11.999 20.146 12.1662 20.3321 12.4453L21.9411 14.8589L25.2575 14.0299C25.7933 13.8959 26.3362 14.2217 26.4701 14.7575C26.6041 15.2933 26.2783 15.8362 25.7425 15.9701L21.7425 16.9701C21.3325 17.0726 20.9024 16.9063 20.6679 16.5547L19.5055 14.8111L14.0854 23.0496C13.9005 23.3307 13.5865 23.5 13.25 23.5H9C8.44772 23.5 8 23.0523 8 22.5C8 21.9477 8.44772 21.5 9 21.5H12.7109L18.6646 12.4504C18.8489 12.1702 19.1615 12.001 19.497 12Z" fill="#1D1D1D"/>
<path fill-rule="evenodd" clip-rule="evenodd" d="M14.316 12.0327C14.5088 11.6679 14.9058 11.459 15.3156 11.5067L19.6156 12.0067C20.1641 12.0705 20.5571 12.5669 20.4934 13.1155C20.4296 13.6641 19.9331 14.0571 19.3846 13.9933L15.7643 13.5724L14.2341 16.4673C13.9761 16.9556 13.371 17.1422 12.8827 16.8841C12.3945 16.626 12.2079 16.021 12.466 15.5327L14.316 12.0327Z" fill="#1D1D1D"/>
<path d="M24 10C24 11.1046 23.1046 12 22 12C20.8954 12 20 11.1046 20 10C20 8.89543 20.8954 8 22 8C23.1046 8 24 8.89543 24 10Z" fill="#1D1D1D"/>
</g>
<defs>
<linearGradient id="paint0_linear_3195_23873" x1="0" y1="0" x2="34" y2="34" gradientUnits="userSpaceOnUse">
<stop offset="0.199" stop-color="white" stop-opacity="0.5"/>
<stop offset="1" stop-color="white" stop-opacity="0"/>
</linearGradient>
<linearGradient id="paint1_linear_3195_23873" x1="34" y1="34" x2="68" y2="68" gradientUnits="userSpaceOnUse">
<stop stop-opacity="0.25"/>
<stop offset="0.35" stop-opacity="0"/>
</linearGradient>
<clipPath id="clip0_3195_23873">
<rect width="34" height="34" rx="4" fill="white"/>
</clipPath>
</defs>
</svg>
