<svg xmlns="http://www.w3.org/2000/svg" width="34" height="34" viewBox="6.89 7.90 20.21 18.48" fill="none">
  <path fill-rule="evenodd" clip-rule="evenodd" d="M18.409 18.2882C17.5719 17.6682 16.4279 17.6682 15.5909 18.2882L15.2835 18.5159C13.8956 19.544 11.9937 19.5253 10.6263 18.4701C10.0258 18.0068 9.20425 17.9542 8.54954 18.337L8.50473 18.3632C8.02798 18.642 7.41549 18.4816 7.13669 18.0048C6.85789 17.5281 7.01836 16.9156 7.49511 16.6368L7.53991 16.6106C8.8981 15.8163 10.6024 15.9255 11.848 16.8867C12.5072 17.3953 13.424 17.4043 14.0931 16.9088L14.4004 16.6811C15.9447 15.5372 18.0552 15.5372 19.5994 16.6811L19.9068 16.9088C20.5758 17.4043 21.4926 17.3953 22.1518 16.8867C23.3975 15.9255 25.1017 15.8163 26.4599 16.6106L26.5047 16.6368C26.9815 16.9156 27.1419 17.5281 26.8631 18.0048C26.5843 18.4816 25.9719 18.642 25.4951 18.3632L25.4503 18.337C24.7956 17.9542 23.974 18.0068 23.3736 18.4701C22.0061 19.5253 20.1042 19.544 18.7163 18.5159L18.409 18.2882Z" fill="#0f172a" />
  <path fill-rule="evenodd" clip-rule="evenodd" d="M18.409 21.7882C17.5719 21.1682 16.4279 21.1682 15.5909 21.7882L15.2835 22.0159C13.8956 23.044 11.9937 23.0253 10.6263 21.9701C10.0258 21.5068 9.20425 21.4542 8.54954 21.837L8.50473 21.8632C8.02798 22.142 7.41549 21.9816 7.13669 21.5048C6.85789 21.0281 7.01836 20.4156 7.49511 20.1368L7.53991 20.1106C8.8981 19.3163 10.6024 19.4255 11.848 20.3867C12.5072 20.8953 13.424 20.9043 14.0931 20.4088L14.4004 20.1811C15.9447 19.0372 18.0552 19.0372 19.5994 20.1811L19.9068 20.4088C20.5758 20.9043 21.4926 20.8953 22.1518 20.3867C23.3975 19.4255 25.1017 19.3163 26.4599 20.1106L26.5047 20.1368C26.9815 20.4156 27.1419 21.0281 26.8631 21.5048C26.5843 21.9816 25.9719 22.142 25.4951 21.8632L25.4503 21.837C24.7956 21.4542 23.974 21.5068 23.3736 21.9701C22.0061 23.0253 20.1042 23.044 18.7163 22.0159L18.409 21.7882Z" fill="#0f172a" />
  <path fill-rule="evenodd" clip-rule="evenodd" d="M18.409 25.2882C17.5719 24.6682 16.4279 24.6682 15.5909 25.2882L15.2835 25.5159C13.8956 26.544 11.9937 26.5253 10.6263 25.4701C10.0258 25.0068 9.20425 24.9542 8.54954 25.337L8.50473 25.3632C8.02798 25.642 7.41549 25.4816 7.13669 25.0048C6.85789 24.5281 7.01836 23.9156 7.49511 23.6368L7.53991 23.6106C8.8981 22.8163 10.6024 22.9255 11.848 23.8867C12.5072 24.3953 13.424 24.4043 14.0931 23.9088L14.4004 23.6811C15.9447 22.5372 18.0552 22.5372 19.5994 23.6811L19.9068 23.9088C20.5758 24.4043 21.4926 24.3953 22.1518 23.8867C23.3975 22.9255 25.1017 22.8163 26.4599 23.6106L26.5047 23.6368C26.9815 23.9156 27.1419 24.5281 26.8631 25.0048C26.5843 25.4816 25.9719 25.642 25.4951 25.3632L25.4503 25.337C24.7956 24.9542 23.974 25.0068 23.3736 25.4701C22.0061 26.5253 20.1042 26.544 18.7163 25.5159L18.409 25.2882Z" fill="#0f172a" />
  <path fill-rule="evenodd" clip-rule="evenodd" d="M17.5 9C17.7652 9 18.0196 9.10536 18.2071 9.29289L23.2071 14.2929C23.5976 14.6834 23.5976 15.3166 23.2071 15.7071C22.8166 16.0976 22.1834 16.0976 21.7929 15.7071L17.5 11.4142L14.7071 14.2071C14.3166 14.5976 13.6834 14.5976 13.2929 14.2071C12.9024 13.8166 12.9024 13.1834 13.2929 12.7929L16.7929 9.29289C16.9804 9.10536 17.2348 9 17.5 9Z" fill="#0f172a" />
  <path fill-rule="evenodd" clip-rule="evenodd" d="M20.7071 11.7929C21.0976 12.1834 21.0976 12.8166 20.7071 13.2071L19.2071 14.7071C18.8166 15.0976 18.1834 15.0976 17.7929 14.7071C17.4024 14.3166 17.4024 13.6834 17.7929 13.2929L19.2929 11.7929C19.6834 11.4024 20.3166 11.4024 20.7071 11.7929Z" fill="#0f172a" />
  <path d="M25 10C25 11.1046 24.1046 12 23 12C21.8954 12 21 11.1046 21 10C21 8.89543 21.8954 8 23 8C24.1046 8 25 8.89543 25 10Z" fill="#0f172a" />
</svg>