<svg width="34" height="34" viewBox="0 0 34 34" fill="none" xmlns="http://www.w3.org/2000/svg">
<g clip-path="url(#clip0_3319_22067)">
<rect width="34" height="34" fill="#EE5454"/>
<rect width="34" height="34" fill="url(#paint0_linear_3319_22067)"/>
<rect x="34" y="34" width="34" height="34" transform="rotate(180 34 34)" fill="url(#paint1_linear_3319_22067)"/>
<path fill-rule="evenodd" clip-rule="evenodd" d="M12.508 16.211C12.6474 15.6766 13.1936 15.3564 13.728 15.4958L18.6365 16.7762C18.9587 16.8603 19.218 17.0992 19.328 17.4135L20.8219 21.6818C21.0043 22.2031 20.7297 22.7736 20.2084 22.956C19.6871 23.1385 19.1166 22.8638 18.9342 22.3425L17.6162 18.577L13.2232 17.431C12.6888 17.2916 12.3686 16.7454 12.508 16.211Z" fill="#1D1D1D"/>
<path fill-rule="evenodd" clip-rule="evenodd" d="M16.4604 10.7681C16.7958 10.767 17.1094 10.9343 17.2955 11.2134L18.6119 13.188L21.3428 12.5052C21.8786 12.3713 22.4216 12.6971 22.5555 13.2328C22.6895 13.7686 22.3637 14.3116 21.8279 14.4455L18.4133 15.2992C18.0033 15.4017 17.5731 15.2354 17.3387 14.8837L16.4689 13.5791L11.9635 20.4274C11.7785 20.7086 11.4646 20.8778 11.128 20.8778H7.5C6.94772 20.8778 6.5 20.4301 6.5 19.8778C6.5 19.3255 6.94772 18.8778 7.5 18.8778H10.5889L15.628 11.2184C15.8124 10.9382 16.1249 10.7691 16.4604 10.7681Z" fill="#1D1D1D"/>
<path fill-rule="evenodd" clip-rule="evenodd" d="M11.9085 10.874C12.1013 10.5093 12.4983 10.3003 12.9081 10.348L16.5788 10.7748C17.1274 10.8386 17.5204 11.335 17.4566 11.8836C17.3929 12.4322 16.8964 12.8252 16.3478 12.7614L13.3569 12.4137L12.0974 14.7964C11.8393 15.2847 11.2343 15.4713 10.746 15.2132C10.2578 14.9551 10.0712 14.3501 10.3292 13.8618L11.9085 10.874Z" fill="#1D1D1D"/>
<path d="M20.3048 9.20732C20.3048 10.1502 19.5404 10.9146 18.5975 10.9146C17.6545 10.9146 16.8901 10.1502 16.8901 9.20732C16.8901 8.26439 17.6545 7.5 18.5975 7.5C19.5404 7.5 20.3048 8.26439 20.3048 9.20732Z" fill="#1D1D1D"/>
<path fill-rule="evenodd" clip-rule="evenodd" d="M27.0565 12.2926C27.3192 12.7784 27.1382 13.3852 26.6523 13.6478L25.5174 14.2613L24.1262 24.1461H24.4695C24.7347 24.1461 24.9891 24.2515 25.1766 24.439L26.0303 25.2927C26.4208 25.6832 26.4208 26.3164 26.0303 26.7069C25.6398 27.0974 25.0066 27.0974 24.6161 26.7069L24.0553 26.1461H9.51787L8.95711 26.7069C8.56658 27.0974 7.93342 27.0974 7.54289 26.7069C7.15237 26.3164 7.15237 25.6832 7.54289 25.2927L8.39655 24.439C8.58409 24.2515 8.83844 24.1461 9.10366 24.1461H22.1065L23.6073 13.4824C23.6516 13.1678 23.8426 12.8931 24.122 12.742L25.7013 11.8884C26.1872 11.6257 26.7939 11.8067 27.0565 12.2926Z" fill="#1D1D1D"/>
</g>
<defs>
<linearGradient id="paint0_linear_3319_22067" x1="0" y1="0" x2="34" y2="34" gradientUnits="userSpaceOnUse">
<stop offset="0.199" stop-color="white" stop-opacity="0.5"/>
<stop offset="1" stop-color="white" stop-opacity="0"/>
</linearGradient>
<linearGradient id="paint1_linear_3319_22067" x1="34" y1="34" x2="68" y2="68" gradientUnits="userSpaceOnUse">
<stop stop-opacity="0.25"/>
<stop offset="0.35" stop-opacity="0"/>
</linearGradient>
<clipPath id="clip0_3319_22067">
<rect width="34" height="34" rx="4" fill="white"/>
</clipPath>
</defs>
</svg>
