<svg xmlns="http://www.w3.org/2000/svg" width="34" height="34" viewBox="9.90 6.90 14.21 20.70" fill="none">
  <path d="M21 9C21 10.1046 20.1046 11 19 11C17.8954 11 17 10.1046 17 9C17 7.89543 17.8954 7 19 7C20.1046 7 21 7.89543 21 9Z" fill="#0f172a" />
  <path fill-rule="evenodd" clip-rule="evenodd" d="M17.1089 11.5797C17.5494 11.3925 18.0607 11.5436 18.3286 11.9401L20.6192 15.3302L23.2577 16.0338C23.7914 16.1761 24.1086 16.724 23.9663 17.2577C23.824 17.7913 23.276 18.1085 22.7424 17.9662L19.7424 17.1662C19.5093 17.1041 19.3065 16.9598 19.1715 16.7599L17.9578 14.9636L17.0991 18.6848L19.7072 21.2929C19.7729 21.3586 19.8291 21.4331 19.8742 21.5144L22.3742 26.0144C22.6424 26.4971 22.4685 27.1059 21.9857 27.3742C21.5029 27.6424 20.8941 27.4684 20.6259 26.9856L18.1939 22.6081L15.2929 19.7071C15.0491 19.4633 14.9481 19.1111 15.0257 18.7751L16.0842 14.1883L14.1363 15.0162L11.7971 18.1039C11.4636 18.5441 10.8364 18.6306 10.3962 18.2971C9.95598 17.9636 9.86946 17.3364 10.203 16.8961L12.703 13.5961C12.8083 13.457 12.9483 13.3479 13.1089 13.2797L17.1089 11.5797Z" fill="#0f172a" />
  <path fill-rule="evenodd" clip-rule="evenodd" d="M15.5933 20.9449C16.0379 21.2726 16.1327 21.8986 15.8051 22.3432L12.3051 27.0932C11.9775 27.5378 11.3515 27.6327 10.9069 27.3051C10.4622 26.9774 10.3674 26.3514 10.695 25.9068L14.195 21.1568C14.5226 20.7122 15.1486 20.6173 15.5933 20.9449Z" fill="#0f172a" />
</svg>